<svg xmlns="http://www.w3.org/2000/svg" viewBox="0 0 387.8 166.49">
  <path fill="white" d="M3.41,71.68V1.15C5.46,1.05,7.47.92,9.49.87,14.64.73,19.8.49,25,.53,30.51.57,35.78,1.75,40.47,5c7.18,5,8.79,17.28,2.55,23.27-1.43,1.37-3.07,2.52-4.63,3.79.84.37,1.78.75,2.68,1.2a17.16,17.16,0,0,1,9.89,14c.82,6.74-.48,12.81-5.69,17.6a24.23,24.23,0,0,1-12.32,6,47.73,47.73,0,0,1-7.74.73c-6.79.1-13.59,0-20.39,0ZM16,38.09c0,7.58,0,15,0,22.43,0,.27.53.76.85.79a42.29,42.29,0,0,0,11.35-.19,12.69,12.69,0,0,0,6.81-3c2.63-2.49,3.16-5.76,3.1-9.12-.11-5.81-2.54-9-7.81-10.28C25.63,37.57,20.88,37.88,16,38.09ZM16,11V28.27c.48,0,.87.1,1.26.12,3.75.15,7.51.44,11.16-.79,4-1.37,6.13-4.58,5.83-9-.27-3.87-2.47-6.5-6.7-7.08C23.82,11.05,20,11.17,16,11Z"/>
  <path fill="white" d="M225.34,165.17c-4.83,0-9.39,0-13.94,0a1.88,1.88,0,0,1-1.21-.89q-8.77-13.52-17.47-27.07a2.33,2.33,0,0,0-2.26-1.28c-2.11,0-4.22-.15-6.48-.25v29.47H171V94.47c2.35-.11,4.69-.28,7-.32,6.07-.09,12.15-.28,18.21-.11a26.5,26.5,0,0,1,11.94,3.2c6.06,3.25,8.88,8.55,9.26,15.21.56,9.57-3.79,16.64-12.49,20.66a3.82,3.82,0,0,0-.41.27C211.41,143.91,218.3,154.44,225.34,165.17ZM184,105.29V125a36.78,36.78,0,0,0,14.17-.71,7.89,7.89,0,0,0,6-6.86,25.82,25.82,0,0,0,.26-2.62c.21-4.17-1.73-7.08-5.7-8.38C194,104.84,189.1,104.85,184,105.29Z"/>
  <path fill="white" d="M181.21,1H193.8V2.54q0,22.71,0,45.41a21.5,21.5,0,0,0,.46,4.75,11.22,11.22,0,0,0,10.07,8.89,24.29,24.29,0,0,0,7.37-.37c6-1.31,9.45-5.92,9.45-12.15q0-23.19,0-46.38V1.06H233.8V2.35q0,23.55,0,47.09c0,6.37-1.71,12.06-6.49,16.55a24.09,24.09,0,0,1-11.81,6,37.54,37.54,0,0,1-20.11-.83c-8.37-2.85-12.89-8.9-13.93-17.6a44,44,0,0,1-.25-5.26q0-22.89,0-45.78Z"/>
  <path fill="white" d="M97.82,28.76V39.27H75V60.64h32v11H62.29V1H107V12H74.94V28.76Z"/>
  <path fill="white" d="M98.83,105.5h-32v16.73H89.65v10.51H66.82v21.37h32v11H54.14V94.54H98.83Z"/>
  <path fill="white" d="M276.26,94.56v10.86H244.17v16.81H267v10.56H244.16v21.36h32.06v10.94H231.48V94.56Z"/>
  <path fill="white" d="M173.75,71.68c-4.51,0-8.82,0-13.14,0-.67,0-.87-.3-1.06-.85-1.48-4.17-3-8.32-4.47-12.5a1.33,1.33,0,0,0-1.52-1.07q-11,.06-22,0a1.25,1.25,0,0,0-1.44,1c-1.39,4.2-2.84,8.38-4.31,12.55a1.39,1.39,0,0,1-.91.81c-4.4,0-8.8,0-13.37,0L139.77,0c1.68,0,3.31,0,4.95,0,.34,0,.82.51,1,.89Q152.11,17,158.46,33.07q7.39,18.63,14.78,37.25C173.4,70.72,173.55,71.13,173.75,71.68ZM142.7,22.14l-.29,0c-2.76,8.47-5.51,16.94-8.29,25.47H151Z"/>
  <path fill="white" d="M158.69,98.38l-5.05,10.08c-6.95-4.75-14.27-5.7-21.81-2.12-5.12,2.43-8.15,7-10,12.24a35.22,35.22,0,0,0,.34,25C124.63,149.66,129,154,135.71,155c7.24,1.11,13.65-.63,18.57-6.43a3.61,3.61,0,0,1,.35-.33s.06,0,.2-.06l5.82,10.09c-1,.84-1.9,1.75-2.93,2.53A27.46,27.46,0,0,1,144.35,166a39.48,39.48,0,0,1-16.4-.94,26,26,0,0,1-17.29-15.41c-5.2-12.31-5.59-24.89-.22-37.22,3.87-8.87,10.32-15.45,20-18a36.57,36.57,0,0,1,26.35,2.62,18.31,18.31,0,0,1,1.64,1A1.94,1.94,0,0,1,158.69,98.38Z"/>
  <path fill="white" d="M0,161.26l4.64-11.21,1.41.92c5.47,3.54,11.35,5.27,17.88,3.9,5.28-1.11,7.55-5.09,5.92-10.25a11.9,11.9,0,0,0-3.32-5.18c-2.92-2.74-6.47-4.5-10-6.37-2.53-1.36-5.08-2.69-7.51-4.23C1.94,124.32-.71,117.57.38,109.49s6.29-13.2,14-15.24A33.22,33.22,0,0,1,37,96.15c2.81,1.28,2.76,1.38,1.75,4.21l-2.9,8.17c-1.5-.84-2.9-1.74-4.39-2.45a20.45,20.45,0,0,0-11.87-2,7.72,7.72,0,0,0-5,12.64c2.66,3.11,6.07,5.14,9.58,7.07,3.25,1.79,6.6,3.43,9.71,5.44,8.84,5.74,10.61,16.59,7.85,24-2.16,5.77-6.54,9.46-12.24,11.35-9.93,3.29-19.6,2.54-28.77-2.75C.49,161.63.28,161.45,0,161.26Z"/>
  <path fill="white" d="M344.85,161.32c1.59-3.84,3.12-7.52,4.54-11,2.84,1.33,5.55,2.8,8.4,3.88a19.29,19.29,0,0,0,11.11.61c5.14-1.12,7.42-5,5.88-10.09-1.09-3.62-3.64-6.06-6.76-7.92-3.28-2-6.73-3.66-10-5.61a47.56,47.56,0,0,1-7.05-4.71c-8.66-7.52-9.38-26.34,7.18-31.92,8-2.69,16.11-1.85,23.85,1.59,2.74,1.22,2.68,1.34,1.68,4.14l-2.82,7.94c-2.81-1.24-5.46-2.63-8.27-3.58a15.39,15.39,0,0,0-9.09-.43,7.62,7.62,0,0,0-4.14,12.19,23.83,23.83,0,0,0,7.52,6c3.26,1.84,6.64,3.49,9.9,5.35,5,2.86,8.74,6.87,10.19,12.59,1.89,7.43.85,14.19-5.07,19.64A23.86,23.86,0,0,1,368.5,166c-7.29,1-14.34.25-21-3.18C346.64,162.37,345.79,161.85,344.85,161.32Z"/>
  <path fill="white" d="M277.29,71.64H264.71V12H242.24V1.06h58.43V12H277.29Z"/>
  <path fill="white" d="M281.32,105.51v-11h58.47v10.88H316.42V165.1H303.83V105.51Z"/>
  <path fill="white" d="M338.37,71.63H325.73V70.19c0-8.74,0-17.49,0-26.24a5.08,5.08,0,0,0-.62-2.35q-11.22-19.73-22.5-39.4L302,1c.44,0,.77-.06,1.11-.06,3.68,0,7.36,0,11,0a1.77,1.77,0,0,1,1.83,1.11Q323.58,16,331.31,29.8c.21.38.43.74.72,1.23,2.5-4.48,4.93-8.83,7.35-13.19,3-5.33,5.95-10.66,8.89-16A1.46,1.46,0,0,1,349.75,1c4,0,8.07,0,12.33,0-.24.46-.41.79-.59,1.11q-11.31,19.86-22.6,39.75a4,4,0,0,0-.5,1.9c0,8.78,0,17.57,0,26.36Z"/>
</svg>